<svg width="64" height="65" viewBox="0 0 64 65" fill="none" xmlns="http://www.w3.org/2000/svg">
<path d="M32.0001 22.6173H44.0001C45.4146 22.6173 46.7711 23.1792 47.7713 24.1794C48.7715 25.1796 49.3334 26.5362 49.3334 27.9507V51.1667C49.3334 52.5812 48.7715 53.9377 47.7713 54.9379C46.7711 55.9381 45.4146 56.5 44.0001 56.5H32.0001M32.0001 22.6173H20.0001C18.5856 22.6173 17.229 23.1792 16.2288 24.1794C15.2287 25.1796 14.6667 26.5362 14.6667 27.9507V51.1667C14.6667 52.5812 15.2287 53.9377 16.2288 54.9379C17.229 55.9381 18.5856 56.5 20.0001 56.5H32.0001M32.0001 22.6173V56.5M19.0001 12.7347L23.3334 8.5L27.6667 12.7347M36.3334 8.5L40.6667 12.7347L45.0001 8.5" stroke="white" stroke-width="2" stroke-linecap="round" stroke-linejoin="round"/>
</svg>
